<svg xmlns="http://www.w3.org/2000/svg" width="102" height="114"><g fill="none" fill-rule="evenodd"><g transform="translate(0 1)"><circle cx="50" cy="67" r="45" fill="#FFF" stroke="#4D4D4F" stroke-width="2"/><path fill="#BAE0F9" d="M62.5 57.75h5v5h-5zm0 8.75h5v5h-5z"/><path fill="#231F20" fill-rule="nonzero" d="M28.98 47.101a.762.762 0 0 1-.762-.768c0-.427.338-.768.761-.768h5.18c.423 0 .761.341.761.768a.762.762 0 0 1-.761.768h-5.18zm2.938 22.402a.762.762 0 0 1-.761-.769.76.76 0 0 1 .76-.768h4.874c.423 0 .761.341.761.768a.762.762 0 0 1-.76.769h-4.874zm0-3.02a.762.762 0 0 1-.761-.769.76.76 0 0 1 .76-.768h11.376a.76.76 0 0 1 .76.768.762.762 0 0 1-.76.768H31.918zm0-3.064a.762.762 0 0 1-.761-.768.76.76 0 0 1 .76-.768h7.919a.76.76 0 0 1 .76.768.762.762 0 0 1-.76.768h-7.918zm0-3.052a.762.762 0 0 1-.761-.768c0-.427.338-.769.76-.769h11.376c.422 0 .76.342.76.769a.762.762 0 0 1-.76.768H31.918zm0-3.063a.762.762 0 0 1-.761-.768c0-.427.338-.769.76-.769h11.376c.422 0 .76.342.76.769a.762.762 0 0 1-.76.768H31.918zm16.66 0v4.59H61.38v-4.59H48.578zm18.68 4.59v-4.59h-4.356v4.59h4.356zm-18.934 1.525a1.276 1.276 0 0 1-1.268-1.27v-5.101c0-.704.57-1.27 1.268-1.27h19.198c.698 0 1.268.576 1.268 1.27v5.101c0 .705-.57 1.27-1.268 1.27H48.324zM65.63 85.821v-7.76c0-.287-.117-.565-.328-.778a.96.96 0 0 0-.708-.288c-.55.01-.994.47-.994 1.024v1.836a.762.762 0 1 1-1.522 0v-1.846a1.02 1.02 0 0 0-1.015-1.025 1.02 1.02 0 0 0-1.015 1.025v1.835a.762.762 0 1 1-1.522 0V78.01a1.02 1.02 0 0 0-1.015-1.025 1.02 1.02 0 0 0-1.015 1.025v1.835a.762.762 0 1 1-1.522 0V70.4c0-.288-.117-.565-.328-.779a.955.955 0 0 0-.687-.288h-.021c-.55.01-.994.47-.994 1.024V85.81c0 .704.57 1.27 1.269 1.27h10.159a1.245 1.245 0 0 0 1.258-1.26zm-2.379 4.642a.866.866 0 0 0 .867-.864v-.971h-9.652v.97c0 .481.391.865.867.865h7.918zM61.38 71.072v-4.59H48.578v4.59h2.844v-.716c0-1.376 1.12-2.529 2.495-2.55.676-.01 1.31.245 1.807.725.497.491.783 1.174.783 1.868v.673h4.873zm5.878-4.59h-4.356v4.59h4.356v-4.59zm-17.824 16.18c0 .95.571 1.793 1.449 2.134l.528.203v-6.606a.99.99 0 0 0-.296-.705.993.993 0 0 0-1.691.704v4.27h.01zM26.791 43.526c-.698 0-1.269.576-1.269 1.27v4.333h48.945v-.768c0-.705-.57-1.27-1.268-1.27H38.567a.75.75 0 0 1-.74-.598l-.454-1.985a1.268 1.268 0 0 0-1.237-.993H26.79v.011zm18.299 0h-6.47c.106.203.18.416.233.651l.317 1.388h7.4l-.244-1.046a1.251 1.251 0 0 0-1.236-.993zm9.366.993a1.268 1.268 0 0 0-1.237-.993h-5.635c.106.203.18.416.233.651l.317 1.388H54.7l-.243-1.046zM67.162 85.82a2.821 2.821 0 0 1-1.522 2.497v1.28A2.396 2.396 0 0 1 63.251 92h-7.918a2.403 2.403 0 0 1-2.389-2.401v-1.281a2.81 2.81 0 0 1-1.385-1.611l-1.226-.48a3.79 3.79 0 0 1-2.357-2.904H26.79A2.8 2.8 0 0 1 24 80.517v-35.71A2.8 2.8 0 0 1 26.79 42h26.43a2.79 2.79 0 0 1 2.727 2.177l.317 1.388H73.21A2.8 2.8 0 0 1 76 48.37v32.135c0 1.547-1.258 2.807-2.79 2.807h-3.246a.762.762 0 0 1-.761-.769.76.76 0 0 1 .76-.768h3.246c.698 0 1.269-.576 1.269-1.27v-29.84H25.533v29.84c0 .704.57 1.27 1.268 1.27h21.122v-3.372a2.53 2.53 0 0 1 2.505-2.53h.01c.35 0 .677.075.994.203v-3.48h-3.097a1.276 1.276 0 0 1-1.269-1.27v-5.1c0-.705.571-1.27 1.269-1.27h19.197c.698 0 1.269.576 1.269 1.27v5.1c0 .705-.57 1.27-1.269 1.27H56.496v3.074a2.533 2.533 0 0 1 2.79.512 2.533 2.533 0 0 1 1.777-.725 2.48 2.48 0 0 1 1.776.736 2.578 2.578 0 0 1 1.723-.736c.676-.01 1.31.245 1.808.726.496.49.782 1.174.782 1.867l.01 7.77z"/></g><g transform="translate(1 1)"><circle cx="20" cy="20" r="20" fill="#4D4D4F" stroke="#0B79BF" stroke-width="2"/><path fill="#FFF" fill-rule="nonzero" d="M18.8 18.992c.368.032.76.032 1.176 0a3.702 3.702 0 0 0 1.164-.276c.36-.152.656-.372.888-.66.232-.288.348-.672.348-1.152 0-.72-.24-1.272-.72-1.656A2.576 2.576 0 0 0 20 14.672c-.864 0-1.516.284-1.956.852-.44.568-.652 1.284-.636 2.148h-3.24c.032-.864.188-1.652.468-2.364a5.399 5.399 0 0 1 1.176-1.836 5.21 5.21 0 0 1 1.812-1.188c.704-.28 1.488-.42 2.352-.42.672 0 1.344.1 2.016.3.672.2 1.276.5 1.812.9s.972.888 1.308 1.464c.336.576.504 1.24.504 1.992 0 .816-.196 1.536-.588 2.16-.392.624-.98 1.048-1.764 1.272V20c.928.208 1.656.656 2.184 1.344.528.688.792 1.512.792 2.472 0 .88-.172 1.664-.516 2.352a5.137 5.137 0 0 1-1.38 1.728 6.095 6.095 0 0 1-1.992 1.056c-.752.24-1.536.36-2.352.36-.944 0-1.804-.136-2.58-.408a5.412 5.412 0 0 1-1.98-1.188 5.266 5.266 0 0 1-1.26-1.908c-.296-.752-.436-1.616-.42-2.592H17c.016.448.088.876.216 1.284.128.408.312.76.552 1.056.24.296.54.532.9.708.36.176.788.264 1.284.264.768 0 1.416-.236 1.944-.708s.792-1.116.792-1.932c0-.64-.124-1.128-.372-1.464a2.133 2.133 0 0 0-.948-.732 3.968 3.968 0 0 0-1.26-.264 24.923 24.923 0 0 0-1.308-.036v-2.4z"/></g></g></svg>