<svg xmlns="http://www.w3.org/2000/svg" width="102" height="114"><g fill="none" fill-rule="evenodd"><g transform="translate(1 1)"><circle cx="50" cy="67" r="45" fill="#FFF" stroke="#4D4D4F" stroke-width="2"/><path fill="#BAE0F9" d="M41.25 53.48l14.234-3.695.766 7.465h-15z"/><path fill="#4D4D4F" fill-rule="nonzero" d="M50.25 42c3.41 0 6.366 2.42 7.067 5.702l7.596 1.77a.849.849 0 0 1 .652.909l-.019.11-.592 2.525h1.445a.85.85 0 0 1 .666.321l.063.091 2.55 4.237.021.037c.01.017.018.035.026.052l-.011-.02.028.061a.782.782 0 0 1 .024.068l.007.03.017.081.002.025.004.041.003.018 1.7 33.051a.848.848 0 0 1-.734.883l-.116.008H29.85a.853.853 0 0 1-.847-.776l-.002-.115 1.7-33.05a.86.86 0 0 1 .035-.201l.02-.058a.57.57 0 0 1 .013-.034l.006-.013a.842.842 0 0 1 .018-.037l.028-.05 2.55-4.238a.849.849 0 0 1 .618-.404l.11-.007.611-.001-.69-5.818a.848.848 0 0 1 .64-.922l.104-.02 9.55-1.125a.849.849 0 0 1 .098-.173A7.259 7.259 0 0 1 50.25 42zm17.892 16.95H32.357l-1.612 31.355h39.01l-1.613-31.356zm-11.517 1.694c1.406 0 2.55 1.14 2.55 2.542 0 1.105-.71 2.047-1.7 2.397v3.112c0 3.972-3.242 7.203-7.225 7.203-3.984 0-7.225-3.231-7.225-7.203v-3.112a2.547 2.547 0 0 1-1.7-2.397 2.549 2.549 0 0 1 2.55-2.542c1.406 0 2.55 1.14 2.55 2.542 0 1.105-.71 2.047-1.7 2.397v3.112c0 3.037 2.478 5.508 5.525 5.508 3.046 0 5.525-2.471 5.525-5.508l-.001-3.112a2.547 2.547 0 0 1-1.7-2.397 2.549 2.549 0 0 1 2.55-2.542zm-12.75 1.695a.85.85 0 0 0-.736 1.272.85.85 0 0 1 1.47-.002.828.828 0 0 0 .116-.422.85.85 0 0 0-.85-.848zm12.75 0a.85.85 0 0 0-.767 1.214.852.852 0 0 1 .701-.367h.066a.85.85 0 0 1 .735.423.828.828 0 0 0 .114-.422.85.85 0 0 0-.85-.848zM34.91 54.711h-.33l-1.53 2.543 2.161-.001-.301-2.542zm31.007 0h-1.362l-.596 2.542h3.488l-1.53-2.542zm-17.582-8.347L35.808 47.84l1.115 9.413h4.138l-.672-2.788a.847.847 0 0 1 .525-.991l.102-.032 7.933-1.902-.613-5.176zm5.944 5.642l-12.04 2.886.569 2.361h12.736l-1.265-5.247zm-.514-3.392l-.441 1.877 1.384-.332a.858.858 0 0 1 .544.05l.099.051a.85.85 0 0 1 .349.418l.033.107 1.56 6.468h4.92l1.484-6.323-9.932-2.316zm-3.517-4.919c-1.22 0-2.396.408-3.35 1.13l2.082-.244a.852.852 0 0 1 .923.633l.02.11.69 5.817.861-.207.83-3.531a.848.848 0 0 1 .91-.65l.11.018 2.094.487a5.557 5.557 0 0 0-5.17-3.563z"/></g><g transform="translate(1 1)"><circle cx="20" cy="20" r="20" fill="#4D4D4F" stroke="#0B79BF" stroke-width="2"/><path fill="#FFF" fill-rule="nonzero" d="M25.328 14.341h-6.936l-.672 3.816.048.048c.464-.464.96-.796 1.488-.996.528-.2 1.128-.3 1.8-.3.832 0 1.568.152 2.208.456a4.85 4.85 0 0 1 1.62 1.224c.44.512.776 1.116 1.008 1.812.232.696.348 1.436.348 2.22 0 .864-.168 1.668-.504 2.412a6.15 6.15 0 0 1-1.356 1.932 6.018 6.018 0 0 1-1.98 1.26 6.17 6.17 0 0 1-2.4.42 8.351 8.351 0 0 1-2.34-.324 5.843 5.843 0 0 1-1.98-.996 4.996 4.996 0 0 1-1.38-1.668c-.344-.664-.524-1.436-.54-2.316h3.408c.08.768.368 1.38.864 1.836.496.456 1.128.684 1.896.684.448 0 .852-.092 1.212-.276a2.89 2.89 0 0 0 .912-.72c.248-.296.44-.64.576-1.032a3.846 3.846 0 0 0 .012-2.436 2.86 2.86 0 0 0-.576-1.008 2.704 2.704 0 0 0-.912-.672c-.352-.16-.76-.24-1.224-.24-.608 0-1.104.108-1.488.324-.384.216-.744.556-1.08 1.02h-3.072l1.656-9.288h9.384v2.808z"/></g></g></svg>