<svg xmlns="http://www.w3.org/2000/svg" width="102" height="114"><g fill="none" fill-rule="evenodd"><g transform="translate(1 1)"><path d="M0 0h100v112H0z"/><circle cx="50" cy="67" r="45" fill="#FFF" stroke="#4D4D4F" stroke-width="2"/><circle cx="37.125" cy="49.125" r="6.875" fill="#BEE5FF"/><path fill="#4D4D4F" fill-rule="nonzero" d="M67.331 42a2.927 2.927 0 0 1 2.914 2.758l.005.172v44.14a2.929 2.929 0 0 1-2.747 2.925L67.33 92H31.92a2.927 2.927 0 0 1-2.914-2.758L29 89.07V62.931c0-.54.436-.977.973-.977.499 0 .91.377.966.863l.007.114v26.14c0 .5.376.913.86.97l.113.006H67.33c.498 0 .91-.378.967-.863l.006-.114V44.93c0-.5-.376-.914-.86-.97l-.113-.007H47.647a.975.975 0 0 1-.973-.976c0-.501.376-.914.86-.97l.113-.007H67.33zm-8.72 38.867c.536 0 .972.438.972.977 0 .5-.375.914-.86.97l-.113.007H44.795a.975.975 0 0 1-.973-.977c0-.5.376-.914.86-.97l.113-.007H58.61zm-17.971 0a.976.976 0 0 1 0 1.953.978.978 0 0 1-.973-.976.978.978 0 0 1 .973-.977zm0-5.469a.978.978 0 0 1 .687 1.667.978.978 0 0 1-.687.287.978.978 0 0 1-.973-.977.978.978 0 0 1 .973-.977zm17.97 0c.537 0 .973.438.973.977 0 .5-.375.914-.86.97l-.113.007H44.795a.975.975 0 0 1-.973-.977c0-.5.376-.913.86-.97l.113-.006H58.61zm-8.985-29.492c7.135 0 12.94 5.827 12.94 12.989 0 7.162-5.805 12.988-12.94 12.988a12.913 12.913 0 0 1-8.4-3.109 13.01 13.01 0 0 1-4.36-7.717.974.974 0 0 1 1.919-.323 11.018 11.018 0 0 0 2.422 5.279 9.753 9.753 0 0 1 5.09-4.284 4.78 4.78 0 0 1-1.43-3.154l-.008-.266v-.952c0-2.639 2.138-4.786 4.767-4.786 2.558 0 4.651 2.033 4.762 4.573l.005.213v.952a4.78 4.78 0 0 1-1.438 3.42 9.752 9.752 0 0 1 5.079 4.266 11.01 11.01 0 0 0 2.586-7.1c0-6.085-4.932-11.036-10.994-11.036-.563 0-1.13.043-1.682.129a.976.976 0 1 1-.295-1.93c.65-.101 1.315-.152 1.977-.152zm0 17.188a7.732 7.732 0 0 0-6.975 4.347 10.955 10.955 0 0 0 6.975 2.489c2.642 0 5.069-.94 6.967-2.505a7.732 7.732 0 0 0-6.967-4.331zm0-8.57a2.83 2.83 0 0 0-2.816 2.66l-.005.173v.952a2.83 2.83 0 0 0 2.821 2.832 2.83 2.83 0 0 0 2.816-2.66l.005-.172v-.952a2.83 2.83 0 0 0-2.821-2.833zM29.973 58.31a.978.978 0 0 1 0 1.953.978.978 0 0 1-.973-.977.979.979 0 0 1 .973-.977zM36.978 42c4.398 0 7.977 3.592 7.977 8.008 0 4.415-3.579 8.008-7.977 8.008-4.4 0-7.978-3.593-7.978-8.008C29 45.592 32.579 42 36.978 42zm0 1.953c-3.326 0-6.032 2.716-6.032 6.055 0 3.338 2.706 6.054 6.032 6.054s6.031-2.716 6.031-6.054c0-3.339-2.705-6.055-6.031-6.055zm3.466 3.675a.98.98 0 0 1 .08 1.289l-.08.092-3.857 3.87a.969.969 0 0 1-1.276.088l-.1-.087-1.77-1.778a.98.98 0 0 1 0-1.38.97.97 0 0 1 1.284-.082l.092.081 1.082 1.087 3.169-3.18a.97.97 0 0 1 1.376 0z"/></g><g transform="translate(1 1)"><circle cx="20" cy="20" r="20" fill="#4D4D4F" stroke="#0B79BF" stroke-width="2"/><path fill="#FFF" fill-rule="nonzero" d="M14.216 17.99a8.06 8.06 0 0 1 .336-2.677 6.228 6.228 0 0 1 1.152-2.16 5.219 5.219 0 0 1 1.932-1.44c.776-.344 1.668-.516 2.676-.516.768 0 1.5.12 2.196.36.696.24 1.308.584 1.836 1.032a4.9 4.9 0 0 1 1.26 1.656c.312.656.468 1.392.468 2.208 0 .848-.136 1.576-.408 2.184a5.736 5.736 0 0 1-1.08 1.62c-.448.472-.956.9-1.524 1.284-.568.384-1.14.764-1.716 1.14-.576.376-1.136.78-1.68 1.212a7.605 7.605 0 0 0-1.44 1.512h7.944v2.928H13.832c0-.976.14-1.824.42-2.544a6.77 6.77 0 0 1 1.14-1.932 9.972 9.972 0 0 1 1.692-1.572c.648-.48 1.332-.968 2.052-1.464.368-.256.76-.516 1.176-.78a7.82 7.82 0 0 0 1.14-.876c.344-.32.632-.68.864-1.08.232-.4.348-.856.348-1.368 0-.816-.236-1.452-.708-1.908-.472-.456-1.076-.684-1.812-.684-.496 0-.916.116-1.26.348-.344.232-.62.536-.828.912a4.206 4.206 0 0 0-.444 1.248 7.143 7.143 0 0 0-.132 1.356h-3.264z"/></g></g></svg>