<svg xmlns="http://www.w3.org/2000/svg" width="102" height="114"><g fill="none" fill-rule="evenodd"><path d="M1 1h100v112H1z"/><g transform="translate(6 23)"><circle cx="45" cy="45" r="45" fill="#FFF" stroke="#4D4D4F" stroke-width="2"/><circle cx="44.375" cy="33.375" r="8.125" fill="#BEE5FF"/><path fill="#4D4D4F" fill-rule="nonzero" d="M62.478 20a2.934 2.934 0 0 1 2.924 2.758l.005.172v10.62a.977.977 0 0 1-1.946.114l-.007-.114V22.93c0-.5-.378-.914-.863-.97l-.113-.007H26.93c-.5 0-.914.378-.97.863l-.007.114v44.14c0 .5.378.914.863.97l.114.007h35.548c.5 0 .913-.378.97-.863l.006-.114v-7.194a.977.977 0 0 1 1.947-.114l.006.114v7.194a2.933 2.933 0 0 1-2.758 2.925l-.171.005H26.93a2.934 2.934 0 0 1-2.925-2.758L24 67.07V22.93a2.933 2.933 0 0 1 2.758-2.925L26.93 20h35.548zm-12.5 42.773a.977.977 0 0 1 .113 1.947l-.114.007h-5.273a.977.977 0 0 1-.114-1.947l.114-.007h5.273zm18.86-30.456a4.075 4.075 0 0 1 3.112.41 4.106 4.106 0 0 1 1.501 5.602l-12.29 21.286a.975.975 0 0 1-.266.298l-6.278 4.623a.976.976 0 0 1-1.55-.894l.866-7.749a.978.978 0 0 1 .124-.38l12.29-21.285a4.075 4.075 0 0 1 2.49-1.911zm-13.13 25.277l-.452 4.046 3.279-2.414-2.827-1.632zm-5.73-.29a.977.977 0 0 1 .113 1.947l-.114.007H36.11a.977.977 0 0 1-.114-1.947l.114-.006h13.867zm-18.04 0c.258 0 .509.105.691.287a.984.984 0 0 1 .286.69.984.984 0 0 1-.286.69.984.984 0 0 1-.691.287.984.984 0 0 1-.69-.286.984.984 0 0 1-.287-.69c0-.258.105-.51.286-.691a.986.986 0 0 1 .69-.286zm34.161-18.74l-9.862 17.08 3.722 2.149 9.862-17.081-3.722-2.149zM49.977 51.835a.977.977 0 0 1 .114 1.946l-.114.007H36.11a.977.977 0 0 1-.114-1.946l.114-.007h13.867zm-18.04 0c.259 0 .51.104.692.286a.984.984 0 0 1 .286.69.984.984 0 0 1-.286.69.986.986 0 0 1-.691.287.986.986 0 0 1-.69-.286.984.984 0 0 1-.287-.69c0-.257.105-.51.286-.69a.986.986 0 0 1 .69-.287zm0-5.469c.259 0 .51.105.692.286a.984.984 0 0 1 .286.69.984.984 0 0 1-.286.691.986.986 0 0 1-.691.286.986.986 0 0 1-.69-.286.984.984 0 0 1-.287-.69c0-.257.105-.509.286-.69a.984.984 0 0 1 .69-.287zm4.173 0h13.867a.977.977 0 0 1 .114 1.947l-.114.006H36.11a.977.977 0 0 1-.114-1.946l.114-.007h13.867zm8.594-21.094c4.954 0 8.984 4.03 8.984 8.985a8.96 8.96 0 0 1-2.82 6.53 8.95 8.95 0 0 1-6.164 2.454 8.95 8.95 0 0 1-6.164-2.454 8.96 8.96 0 0 1-2.82-6.53c0-4.954 4.03-8.985 8.984-8.985zm0 12.11a4.852 4.852 0 0 0-4.248 2.474 6.994 6.994 0 0 0 4.248 1.432 6.994 6.994 0 0 0 4.247-1.432 4.852 4.852 0 0 0-4.247-2.474zm26.27-2.965a2.134 2.134 0 0 0-1.631-.215 2.134 2.134 0 0 0-1.305 1.001l-.962 1.668 3.721 2.148.963-1.667a2.134 2.134 0 0 0 .214-1.63 2.134 2.134 0 0 0-1-1.305zm-26.27-7.191a7.04 7.04 0 0 0-7.032 7.03 7 7 0 0 0 1.373 4.17 6.775 6.775 0 0 1 2.878-2.413 3.498 3.498 0 0 1-.727-1.906l-.008-.24v-.636a3.52 3.52 0 0 1 3.516-3.515 3.52 3.52 0 0 1 3.51 3.323l.005.192v.635c0 .808-.274 1.553-.734 2.147a6.775 6.775 0 0 1 2.877 2.412 6.993 6.993 0 0 0 1.373-4.168 7.04 7.04 0 0 0-7.031-7.031zm0 4.443c-.814 0-1.484.625-1.556 1.42l-.007.142v.635c0 .862.701 1.563 1.563 1.563.813 0 1.484-.626 1.556-1.42l.006-.143v-.635c0-.861-.7-1.562-1.562-1.562z"/></g><g transform="translate(1 1)"><circle cx="20" cy="20" r="20" fill="#4D4D4F" stroke="#0B79BF" stroke-width="2"/><path fill="#FFF" fill-rule="nonzero" d="M22.736 28.333h-3.408V17.437h-4.224V14.87a8.068 8.068 0 0 0 1.716-.132 4.476 4.476 0 0 0 1.488-.552c.44-.264.812-.612 1.116-1.044.304-.432.504-.968.6-1.608h2.712v16.8z"/></g></g></svg>