<svg xmlns="http://www.w3.org/2000/svg" width="102" height="114"><g fill="none" fill-rule="evenodd"><g transform="translate(1 1)"><path d="M0 0h100v112H0z"/><circle cx="50" cy="67" r="45" fill="#FFF" stroke="#4D4D4F" stroke-width="2"/><path fill="#BAE0F9" d="M23.5 80.75h54v3h-54z"/><path fill="#4D4D4F" fill-rule="nonzero" d="M71.583 46c2.458.003 4.463 1.911 4.578 4.309l.006.212v28.936H78v4.522c-.003 2.424-1.938 4.402-4.368 4.516l-.215.005H27.583c-2.458-.003-4.462-1.911-4.578-4.309L23 83.98v-4.522h1.833V50.521c.003-2.424 1.938-4.402 4.368-4.516l.216-.005h42.166zM44.725 81.266H24.833v2.713c0 1.442 1.142 2.622 2.583 2.708l.167.004h45.834c1.462 0 2.658-1.126 2.745-2.547l.005-.165v-2.713H56.26l-2.735 1.808h-6.08l-2.72-1.808zm26.858-33.457H29.417c-1.463 0-2.659 1.126-2.745 2.547l-.005.165v28.936h18.617l2.722 1.809h4.97l2.73-1.809h18.627V50.521c0-1.498-1.231-2.712-2.75-2.712zm.917 1.808v28.032h-44V49.617h44zm-1.833 1.809H30.333V75.84h40.334V51.426zM39.51 67.9l1.146 1.412-5.224 4.123-2.413-2.38 1.296-1.28 1.253 1.237L39.51 67.9zm27.823 2.17v1.808H43.5v-1.809h23.833zM39.51 60.665l1.146 1.412-5.224 4.123-2.413-2.38 1.296-1.28 1.253 1.237 3.942-3.112zm27.823 2.17v1.808H43.5v-1.809h23.833zM39.51 53.431l1.146 1.412-5.224 4.123-2.413-2.38 1.296-1.28 1.253 1.237 3.942-3.112zm27.823 2.17v1.808H43.5V55.6h23.833z"/></g><g transform="translate(1 1)"><circle cx="20" cy="20" r="20" fill="#4D4D4F" stroke="#0B79BF" stroke-width="2"/><path fill="#FFF" fill-rule="nonzero" d="M20.816 15.805h-.072L16.4 21.637h4.416v-5.832zm0 8.64h-7.104v-3.12l7.296-9.792h3.048v10.104h2.232v2.808h-2.232v3.888h-3.24v-3.888z"/></g></g></svg>