<svg xmlns="http://www.w3.org/2000/svg" width="102" height="114"><g fill="none" fill-rule="evenodd"><g transform="translate(1 1)"><path d="M0 0h100v112H0z"/><circle cx="50" cy="67" r="45" fill="#FFF" stroke="#4D4D4F" stroke-width="2"/><path fill="#BAE0F9" d="M58.923 51.617h-5.539c-2.758 0-5.002-2.168-5.002-4.832v-1.648h5.539c2.758 0 5.002 2.168 5.002 4.832v1.648z"/><path fill="#4D4D4F" fill-rule="nonzero" d="M40.054 68.109a12.195 12.195 0 0 1 8.885-.274l9.611 3.41c1.866.662 2.86 2.678 2.217 4.495-.523 1.475-1.96 2.407-3.492 2.407-.39 0-.787-.06-1.176-.187l-7.433-2.429a.936.936 0 0 1-.612-1.196c.173-.494.727-.758 1.238-.591l7.433 2.428c.901.295 1.886-.173 2.194-1.043.302-.854-.165-1.802-1.042-2.113l-9.612-3.41a10.188 10.188 0 0 0-7.423.229l-4.96 2.115 3.573 7.817.094-.04a9.82 9.82 0 0 1 8.1.177l4.78 2.294a7.809 7.809 0 0 0 6.444.14L71.93 76.77c.945-.403 1.374-1.474.957-2.387-.416-.911-1.52-1.326-2.464-.928l-6.373 2.84a.991.991 0 0 1-1.296-.462.93.93 0 0 1 .478-1.252l6.38-2.843.015-.006c1.93-.823 4.195.024 5.047 1.889.852 1.864-.025 4.052-1.955 4.875l-13.057 5.57a9.819 9.819 0 0 1-8.101-.177l-4.78-2.294a7.81 7.81 0 0 0-6.443-.141l-.117.05c.145.495.12 1.02-.075 1.509a2.41 2.41 0 0 1-1.282 1.312L26.417 90.4a1.004 1.004 0 0 1-.952-.039.937.937 0 0 1-.465-.803V72.935c0-.375.23-.714.585-.865l6.411-2.714a2.536 2.536 0 0 1 1.89-.04c.49.182.896.505 1.176.922zm-6.873 2.966a.535.535 0 0 0-.399.009l-5.829 2.467v8.24l2.028-.962a.992.992 0 0 1 1.307.43.93.93 0 0 1-.446 1.263l-2.889 1.37v4.13l11.05-5.392a.382.382 0 0 1 .046-.021.508.508 0 0 0 .276-.279.485.485 0 0 0-.01-.385l-.251-.55-.001-.003-4.594-10.051a.51.51 0 0 0-.288-.266zm-.255 8.21c.54 0 .976.423.976.944 0 .521-.437.943-.976.943-.54 0-.977-.422-.977-.943 0-.521.438-.943.977-.943zM47.406 43h6.515c3.755 0 6.824 2.89 6.95 6.489l.005.23v2.837a5.453 5.453 0 0 1 3.14-1.183l.277-.006h5.746c.5 0 .914.364.97.833l.007.11v2.546c0 2.79-2.29 5.071-5.15 5.184l-.22.004h-4.77v3.05c3.314.74 6.207 2.805 7.897 5.752a.927.927 0 0 1-.381 1.282.999.999 0 0 1-1.328-.368c-1.523-2.656-4.21-4.458-7.25-4.946a10.522 10.522 0 0 0-1.67-.134c-2.152 0-4.21.641-5.951 1.854a.999.999 0 0 1-1.364-.213.923.923 0 0 1 .221-1.318 12.345 12.345 0 0 1 7.096-2.21l.39.006.387.019v-9.564h-5.539c-3.755 0-6.824-2.89-6.95-6.489l-.005-.23v-2.592c0-.483.377-.882.863-.937l.114-.006h6.515zm21.657 10.254h-4.77c-1.821 0-3.315 1.384-3.412 3.12l-.005.181v1.602h4.77c1.82 0 3.314-1.384 3.411-3.12l.005-.181v-1.602zM53.92 44.887h-5.539v1.648c0 2.592 2.125 4.714 4.78 4.827l.222.005h5.539v-1.648c0-2.664-2.244-4.832-5.002-4.832z"/></g><g transform="translate(1 1)"><circle cx="20" cy="20" r="20" fill="#4D4D4F" stroke="#0B79BF" stroke-width="2"/><path fill="#FFF" fill-rule="nonzero" d="M20.192 19.621c-.448 0-.844.084-1.188.252a2.39 2.39 0 0 0-.852.684c-.224.288-.392.62-.504.996a4.14 4.14 0 0 0-.168 1.188c0 .384.06.764.18 1.14.12.376.296.712.528 1.008.232.296.516.532.852.708.336.176.72.264 1.152.264.416 0 .78-.088 1.092-.264.312-.176.58-.408.804-.696.224-.288.392-.616.504-.984.112-.368.168-.744.168-1.128 0-.4-.052-.788-.156-1.164a3.239 3.239 0 0 0-.468-1.008 2.405 2.405 0 0 0-.804-.72 2.29 2.29 0 0 0-1.14-.276zm2.448-3.768a2.89 2.89 0 0 0-.768-1.464 1.981 1.981 0 0 0-1.488-.624c-.608 0-1.116.18-1.524.54-.408.36-.732.8-.972 1.32a7.123 7.123 0 0 0-.528 1.668c-.112.592-.176 1.12-.192 1.584l.048.048c.464-.672 1.008-1.152 1.632-1.44.624-.288 1.344-.432 2.16-.432.72 0 1.424.156 2.112.468a5.285 5.285 0 0 1 1.752 1.26c.448.512.776 1.096.984 1.752.208.656.312 1.32.312 1.992 0 .864-.14 1.668-.42 2.412a5.759 5.759 0 0 1-1.2 1.944c-.52.552-1.14.984-1.86 1.296-.72.312-1.52.468-2.4.468-1.264 0-2.312-.252-3.144-.756a5.825 5.825 0 0 1-1.992-1.98c-.496-.816-.84-1.74-1.032-2.772a17.218 17.218 0 0 1-.288-3.156c0-1.04.12-2.08.36-3.12s.624-1.98 1.152-2.82a6.489 6.489 0 0 1 2.04-2.052c.832-.528 1.848-.792 3.048-.792.72 0 1.392.104 2.016.312a5.18 5.18 0 0 1 1.656.9c.48.392.872.876 1.176 1.452.304.576.504 1.24.6 1.992h-3.24z"/></g></g></svg>